<?xml version="1.0" standalone="no"?>
<!DOCTYPE svg PUBLIC "-//W3C//DTD SVG 20010904//EN"
 "http://www.w3.org/TR/2001/REC-SVG-20010904/DTD/svg10.dtd">
<svg version="1.0" xmlns="http://www.w3.org/2000/svg"
 width="700.000000pt" height="700.000000pt" viewBox="0 0 700.000000 700.000000"
 preserveAspectRatio="xMidYMid meet">
<metadata>
Created by potrace 1.14, written by Peter Selinger 2001-2017
</metadata>
<g transform="translate(0.000000,700.000000) scale(0.100000,-0.100000)"
fill="#000000" stroke="none">
<path d="M3533 6345 c-116 -25 -180 -64 -486 -293 -164 -122 -324 -235 -355
-251 -32 -15 -217 -80 -412 -144 -382 -125 -435 -149 -528 -240 -94 -91 -120
-149 -247 -542 -63 -198 -127 -384 -141 -413 -14 -29 -125 -186 -246 -350
-127 -171 -233 -324 -250 -361 -75 -164 -75 -345 1 -504 17 -35 129 -197 250
-361 121 -163 231 -320 245 -349 14 -28 78 -214 141 -412 127 -393 153 -451
247 -542 93 -91 146 -115 533 -242 198 -65 383 -130 412 -144 28 -15 186 -127
350 -249 310 -232 370 -268 490 -293 86 -18 140 -18 226 0 120 25 180 61 490
293 164 122 320 233 345 246 26 13 180 67 342 121 162 53 321 105 353 116 111
37 179 79 257 158 42 42 87 99 102 126 14 28 79 212 142 410 64 198 128 383
141 411 14 28 125 186 246 350 122 165 235 326 250 360 76 158 76 350 0 508
-15 34 -128 195 -250 360 -121 164 -232 322 -246 350 -13 28 -77 213 -141 411
-63 198 -128 383 -142 410 -38 72 -164 196 -237 232 -33 17 -193 74 -355 127
-383 126 -406 134 -462 162 -25 13 -181 124 -345 246 -180 135 -323 234 -360
251 -121 54 -241 68 -360 42z m170 -623 c11 -12 64 -251 163 -733 81 -400 156
-739 169 -772 39 -97 86 -166 167 -242 127 -120 165 -134 723 -275 268 -68
491 -129 505 -139 20 -15 25 -27 25 -61 0 -34 -5 -46 -25 -61 -14 -10 -237
-71 -505 -139 -558 -141 -596 -155 -723 -275 -81 -76 -128 -145 -167 -242 -13
-33 -87 -370 -169 -773 -159 -779 -151 -750 -221 -750 -18 0 -39 8 -48 18 -11
12 -64 251 -163 733 -81 400 -156 739 -169 772 -39 97 -86 166 -167 242 -127
120 -165 134 -731 278 -310 79 -495 131 -507 142 -27 24 -27 86 0 110 12 11
197 63 507 142 566 144 604 158 731 278 81 76 128 145 167 242 13 33 88 372
169 772 99 482 152 721 163 733 10 11 30 18 53 18 23 0 43 -7 53 -18z"/>
<path d="M3513 3891 c-108 -40 -188 -116 -240 -227 -25 -53 -28 -70 -28 -164
0 -97 2 -110 32 -173 40 -84 117 -163 198 -203 56 -27 68 -29 175 -29 107 0
119 2 175 29 81 40 158 119 198 203 30 63 32 76 32 173 0 97 -2 110 -32 173
-40 84 -118 163 -198 202 -80 39 -230 46 -312 16z"/>
</g>
</svg>
