<svg width="162" height="24" viewBox="0 0 162 24" fill="none" xmlns="http://www.w3.org/2000/svg">
<path d="M10.7817 18.3125C10.814 18.3936 10.8051 18.4785 10.7564 18.5511C10.7077 18.6235 10.6328 18.6633 10.546 18.6633H4.93143C4.84455 18.6633 4.76989 18.6235 4.72098 18.5511C4.67248 18.4785 4.6634 18.3936 4.6959 18.3125L5.38782 16.5748V4.25486L0.390543 5.87729C0.310827 5.90318 0.230925 5.89046 0.162785 5.84058C0.0950981 5.79111 0.0585938 5.71849 0.0585938 5.63421V1.59935C0.0585938 1.45859 0.172702 1.34375 0.312488 1.34375H15.1649C15.3047 1.34375 15.4188 1.45859 15.4188 1.59935V5.63398C15.4188 5.71849 15.3821 5.79107 15.3142 5.84054C15.2465 5.89042 15.1666 5.90318 15.0868 5.87725L10.0894 4.2546V16.5748L10.7817 18.3125Z" fill="#101827"/>
<path d="M24.9294 16.5833V10.0785C24.9294 9.77491 24.8893 9.29445 24.5823 9.13228C24.1525 8.90552 23.3444 9.30637 22.969 9.51802C22.5742 9.74052 22.174 10.0163 21.8207 10.3091V16.5833L22.5133 18.3218C22.5449 18.4014 22.536 18.4846 22.4884 18.5558C22.4403 18.6269 22.3669 18.6664 22.2815 18.6664H16.6674C16.582 18.6664 16.5086 18.6269 16.461 18.5558C16.4131 18.4847 16.404 18.4014 16.4357 18.3218L17.0785 16.7087V4.39302L16.2944 3.08523C16.2529 3.0158 16.2465 2.93832 16.2763 2.86296C16.3058 2.7876 16.3634 2.73559 16.441 2.7135L21.5042 1.2864C21.5819 1.2643 21.6578 1.27895 21.7221 1.328C21.7864 1.37724 21.8208 1.44709 21.8208 1.52822V7.83322C22.3973 7.37527 22.9819 6.92074 23.6253 6.56514C24.4136 6.12929 25.2852 5.97452 26.1763 5.98173C28.3138 5.9987 29.6215 7.36426 29.6215 9.53146V16.5833L30.3143 18.3217C30.3459 18.4013 30.337 18.4845 30.2891 18.5556C30.2413 18.627 30.1679 18.6663 30.0825 18.6663H24.4684C24.383 18.6663 24.3096 18.627 24.2616 18.5556C24.2139 18.4845 24.205 18.4013 24.2367 18.3217L24.9294 16.5833Z" fill="#101827"/>
<path d="M36.3292 14.1461C36.8543 15.7596 38.5139 16.7222 40.1069 16.9521C40.3884 16.9929 40.6733 17.0126 40.958 17.0126C41.9152 17.0126 42.879 16.785 43.7153 16.3105C43.8214 16.2502 43.9521 16.2747 44.0299 16.3693C44.1073 16.4636 44.1067 16.5976 44.0281 16.6914C42.6231 18.3658 40.4458 18.9643 38.337 18.9643C34.3982 18.9643 31.2227 16.6394 31.2227 12.4604C31.2227 8.2967 34.3783 5.98047 38.3043 5.98047C41.9456 5.98047 43.9909 7.69184 44.2246 11.3755C44.2319 11.4921 44.1615 11.5955 44.051 11.631L43.1887 11.9057L40.4647 12.7738L36.3135 14.0965C36.3186 14.113 36.3239 14.1295 36.3292 14.1461ZM39.8186 11.0305C39.8427 10.624 39.795 10.2057 39.6953 9.81423C39.4099 8.69414 38.5643 7.41414 37.241 7.7273C37.1829 7.74131 37.1259 7.75934 37.0709 7.78143C36.4306 8.03791 36.0835 8.79793 35.9174 9.42401C35.6761 10.3333 35.6844 11.3632 35.8269 12.3026L39.8186 11.0305Z" fill="#101827"/>
<path d="M69.7496 15.795C67.7793 18.1064 64.7614 19.0845 61.8057 19.0845C48.6756 19.0845 48.6623 0.921875 61.8057 0.921875C64.4898 0.921875 67.2349 1.72631 69.2066 3.62769C69.2606 3.67969 69.2874 3.74552 69.2849 3.82088C69.2825 3.89582 69.2518 3.95994 69.1946 4.00811L65.54 7.10521C65.4791 7.1568 65.4059 7.17589 65.3279 7.16082C65.2503 7.14575 65.1891 7.10054 65.152 7.03004C64.5421 5.87597 63.6577 4.80936 62.4867 4.20514C61.591 3.74294 60.5651 3.58456 59.5925 3.88561C58.6018 4.19216 57.8517 4.91402 57.3839 5.83159C56.7441 7.08672 56.6678 8.59643 56.8441 9.97213C57.0453 11.5406 57.7275 12.9289 58.8492 14.0358C61.5221 16.6743 66.1771 17.2238 69.4336 15.405C69.5422 15.3445 69.6754 15.3702 69.7537 15.4667C69.8321 15.5638 69.8304 15.7001 69.7496 15.795Z" fill="#101827"/>
<path d="M70.1445 12.4599C70.1445 8.29153 73.3377 5.98145 77.2586 5.98145C81.1865 5.98145 84.398 8.27558 84.398 12.4599C84.398 16.6546 81.2044 18.9636 77.2586 18.9636C73.3198 18.9636 70.1445 16.6387 70.1445 12.4599ZM76.1627 7.7266C75.4071 7.90537 75.0108 8.76136 74.8329 9.4467C74.5376 10.5827 74.6251 11.9035 74.8902 13.0361C75.1547 14.169 75.6608 15.3908 76.4282 16.275C76.8909 16.8087 77.6249 17.397 78.3803 17.218C79.1357 17.0391 79.5319 16.183 79.7099 15.4982C80.0051 14.3621 79.9172 13.0414 79.6526 11.9085C79.3879 10.7757 78.8818 9.55387 78.1144 8.66941C77.6519 8.13615 76.918 7.54806 76.1627 7.7266Z" fill="#101827"/>
<path d="M93.7003 16.5836V10.0788C93.7003 9.78817 93.67 9.21877 93.3522 9.07527C92.9696 8.90223 92.2608 9.312 91.9468 9.51218C91.5786 9.7474 91.2275 10.0215 90.8948 10.3071C90.8937 12.3993 90.8692 14.4913 90.8688 16.5836L91.5613 18.3219C91.5932 18.4017 91.5843 18.485 91.5364 18.5561C91.4885 18.6272 91.4152 18.6665 91.3298 18.6665H85.792C85.7066 18.6665 85.6335 18.6272 85.5856 18.5561C85.5377 18.485 85.5289 18.4017 85.5605 18.3219L86.253 16.5836V9.24618L85.3846 8.1112C85.3331 8.04412 85.319 7.96345 85.3443 7.88277C85.3694 7.8021 85.4269 7.74394 85.5071 7.71843L86.3768 7.44267C86.3801 7.44161 86.3829 7.44077 86.3863 7.43971L90.5798 6.28859C90.6572 6.26737 90.7329 6.28222 90.7969 6.33149C90.8606 6.38054 90.8949 6.44998 90.8949 6.53106V7.82568C91.3281 7.46541 91.7549 7.09451 92.2155 6.77331C93.0419 6.1971 94.0134 5.96614 95.0092 5.98227C96.4687 6.00562 97.6684 6.69711 98.156 8.05816C98.6815 7.62421 99.2083 7.16034 99.7631 6.77331C100.59 6.19669 101.563 5.96572 102.559 5.98227C103.262 5.99374 103.965 6.1708 104.553 6.56907C105.552 7.24591 105.941 8.35708 105.941 9.53177V16.8363L106.532 18.3222C106.564 18.4018 106.555 18.485 106.507 18.5564C106.459 18.6275 106.386 18.6665 106.301 18.6665H100.787C100.702 18.6665 100.629 18.6275 100.581 18.5564C100.533 18.485 100.524 18.4018 100.556 18.3222L101.248 16.5839V10.079C101.248 9.7884 101.218 9.21899 100.9 9.07549C100.517 8.90246 99.8086 9.31242 99.4946 9.51264C99.1079 9.75932 98.741 10.0489 98.3928 10.3502V16.8363L98.9845 18.3222C99.0163 18.402 99.0075 18.4852 98.9596 18.5563C98.9118 18.6274 98.8384 18.6667 98.753 18.6667H93.2392C93.1538 18.6667 93.0805 18.6274 93.0326 18.5563C92.9849 18.4852 92.9759 18.402 93.0077 18.3222L93.7003 16.5836Z" fill="#101827"/>
<path d="M113.051 20.3911L113.885 21.7825C113.926 21.8506 113.933 21.9264 113.905 22.0007C113.877 22.0753 113.822 22.1277 113.746 22.1515L112.877 22.4275C112.873 22.4285 112.871 22.4292 112.867 22.4303L108.674 23.5814C108.596 23.6028 108.521 23.5879 108.457 23.5385C108.393 23.4894 108.359 23.42 108.359 23.3391V9.47911L107.525 8.08811C107.484 8.01974 107.477 7.94374 107.505 7.86944C107.533 7.79492 107.588 7.74249 107.664 7.71869L108.533 7.4427C108.537 7.44164 108.539 7.44099 108.543 7.43993L112.448 6.36801L112.602 6.3007C112.635 6.28627 112.666 6.27989 112.701 6.27989H112.802C112.939 6.27989 113.051 6.39283 113.051 6.53125V7.51358C113.701 6.8824 114.464 6.38391 115.351 6.15249C116.275 5.91154 117.231 5.92767 118.15 6.18499C120.911 6.95863 122.916 9.72367 122.916 12.5925C122.916 14.0937 122.47 15.5346 121.527 16.708C120.688 17.7519 119.525 18.4905 118.228 18.8049C117.668 18.9408 117.09 18.9954 116.515 18.9642C115.19 18.8918 114.024 18.4996 113.051 17.6474V20.3911H113.051ZM113.259 13.5105C113.493 14.5324 113.971 15.5968 114.794 16.2739C115.331 16.7159 116.055 16.994 116.746 16.7934C117.373 16.6112 117.781 16.0957 118 15.4979C118.354 14.5307 118.241 13.3439 118.016 12.3613C117.806 11.4457 117.404 10.4994 116.776 9.79352C116.339 9.30372 115.728 8.8698 115.047 8.88423C114.939 8.88677 114.831 8.90059 114.725 8.92606C114.633 8.94835 114.543 8.97937 114.456 9.01843C113.824 9.30311 113.451 9.97399 113.266 10.616C112.999 11.5393 113.046 12.5815 113.259 13.5105Z" fill="#101827"/>
<path d="M137.449 18.3216C137.481 18.4015 137.472 18.4847 137.425 18.5558C137.377 18.6269 137.303 18.6662 137.218 18.6662H132.314C132.177 18.6662 132.065 18.5534 132.065 18.415V17.648C130.859 18.5664 129.451 18.964 127.91 18.964C126.217 18.964 124.5 18.3161 123.8 16.6493C123.103 14.9912 123.766 13.1603 124.939 11.9122C126.721 10.0165 129.492 9.38277 131.996 9.38151C132.016 9.38045 132.037 9.37916 132.058 9.37791C132.03 8.92231 131.907 8.42276 131.51 8.17243C129.884 7.1472 127.305 8.64628 125.948 9.61802C125.886 9.66259 125.815 9.67576 125.741 9.65667C125.667 9.63757 125.611 9.5913 125.579 9.52251L124.496 7.25532C124.465 7.1912 124.462 7.12496 124.487 7.05852C124.512 6.99209 124.557 6.94387 124.622 6.91608C128.239 5.34696 136.757 4.93104 136.757 10.6384V16.5833L137.449 18.3216ZM132.065 11.5341C131.067 11.6356 130.173 12.0929 129.507 12.8663C128.97 13.4902 128.551 14.3898 128.595 15.2307C128.612 15.5768 128.728 15.9071 129.02 16.1115C129.559 16.4894 130.362 16.2631 130.866 15.9324C131.66 15.4105 132.065 14.536 132.065 13.593V11.5341V11.5341Z" fill="#101827"/>
<path d="M148.953 7.47271L147.184 10.0065C147.14 10.069 147.078 10.1051 147.002 10.112C146.927 10.1191 146.859 10.0944 146.805 10.0409C146.02 9.26327 144.574 7.75633 143.412 7.75633C142.224 7.75633 142.436 8.76561 143.205 9.2868C143.621 9.56876 144.112 9.79528 144.568 10.0042C145.131 10.2617 145.699 10.5076 146.252 10.7863C147.838 11.5856 149.362 12.6815 149.362 14.6496C149.362 17.9807 146.15 18.9668 143.38 18.9668C141.557 18.9668 139.729 18.4002 138.181 17.4384C138.12 17.4004 138.082 17.3452 138.068 17.2745C138.054 17.204 138.068 17.138 138.109 17.0794L140.05 14.326C140.094 14.2643 140.156 14.228 140.231 14.2214C140.307 14.2148 140.374 14.2394 140.429 14.2929C141.323 15.1827 142.294 16.178 143.412 16.7813C143.694 16.9336 144.033 17.0321 144.348 17.0807C144.893 17.165 145.914 17.1618 145.914 16.3811C145.914 15.9077 145.173 15.4572 144.825 15.2536C144.434 15.0254 144.024 14.8235 143.617 14.626C143.156 14.402 142.692 14.183 142.235 13.9503C141.81 13.7333 141.388 13.5048 140.984 13.249C140.402 12.8811 139.812 12.4297 139.405 11.8659C139.161 11.5291 139 11.1476 138.923 10.739C138.754 9.84387 138.999 8.89913 139.465 8.13144C139.733 7.68963 140.084 7.29113 140.496 6.98074C141.574 6.1691 143.033 5.98145 144.342 5.98145C146.039 5.98145 147.375 6.29798 148.867 7.10728C148.932 7.1425 148.975 7.19835 148.992 7.27055C149.009 7.34299 148.996 7.41197 148.953 7.47271Z" fill="#101827"/>
<path d="M160.844 7.47271L159.075 10.0065C159.031 10.069 158.968 10.1051 158.893 10.112C158.817 10.1191 158.75 10.0944 158.695 10.0409C157.911 9.26327 156.464 7.75633 155.303 7.75633C154.114 7.75633 154.327 8.76561 155.096 9.2868C155.512 9.56876 156.003 9.79528 156.459 10.0042C157.022 10.2617 157.589 10.5076 158.143 10.7863C159.728 11.5856 161.253 12.6815 161.253 14.6496C161.253 17.9807 158.041 18.9668 155.271 18.9668C153.447 18.9668 151.619 18.4002 150.072 17.4384C150.011 17.4004 149.973 17.3452 149.959 17.2745C149.944 17.204 149.958 17.138 150 17.0794L151.94 14.326C151.984 14.2643 152.047 14.228 152.122 14.2214C152.197 14.2148 152.265 14.2394 152.319 14.2929C153.214 15.1827 154.184 16.178 155.303 16.7813C155.585 16.9336 155.923 17.0321 156.239 17.0807C156.784 17.165 157.804 17.1618 157.804 16.3811C157.804 15.9077 157.064 15.4572 156.715 15.2536C156.325 15.0254 155.914 14.8235 155.508 14.626C155.046 14.402 154.583 14.183 154.126 13.9503C153.7 13.7333 153.278 13.5048 152.874 13.249C152.293 12.8811 151.703 12.4297 151.295 11.8659C151.052 11.5291 150.891 11.1476 150.813 10.739C150.644 9.84387 150.889 8.89913 151.356 8.13144C151.624 7.68963 151.975 7.29113 152.387 6.98074C153.464 6.1691 154.924 5.98145 156.233 5.98145C157.93 5.98145 159.266 6.29798 160.758 7.10728C160.823 7.1425 160.865 7.19835 160.882 7.27055C160.899 7.34299 160.886 7.41197 160.844 7.47271Z" fill="#101827"/>
</svg>
