<svg width="41" height="41" viewBox="0 0 41 41" fill="none" xmlns="http://www.w3.org/2000/svg">
  <path
    d="M37.3252 22.5779L35.0808 25.6121C34.8557 25.9165 34.6816 26.2559 34.5653 26.6168L33.3682 30.334C33.0267 31.3946 32.2007 32.2261 31.1472 32.57L27.455 33.7751C27.0964 33.8922 26.7593 34.0675 26.457 34.2941L23.4431 36.5536C22.2185 37.4716 20.5406 37.4716 19.316 36.5536L16.3021 34.2941C15.9998 34.0674 15.6627 33.8921 15.3041 33.7751L11.6119 32.57C10.5583 32.2261 9.73239 31.3945 9.39079 30.3339L8.19376 26.6168C8.0775 26.2558 7.90337 25.9165 7.67824 25.6121L5.43393 22.5779C4.52202 21.3451 4.52202 19.6558 5.43393 18.423L7.67828 15.3888C7.9034 15.0844 8.07754 14.745 8.19376 14.3841L9.39086 10.6669C9.73243 9.60627 10.5584 8.77477 11.6119 8.43086L15.3041 7.22577C15.6627 7.10873 15.9998 6.93341 16.3021 6.70677L19.316 4.44733C20.5406 3.52927 22.2185 3.52927 23.4431 4.44733L26.457 6.70681C26.7593 6.93345 27.0964 7.10876 27.455 7.22577L31.1472 8.43094C32.2008 8.77481 33.0267 9.60635 33.3683 10.667L34.5653 14.3841C34.6816 14.7451 34.8557 15.0844 35.0809 15.3888L37.3252 18.423C38.2371 19.6558 38.2371 21.3451 37.3252 22.5779Z"
    fill="#D92626" />
  <path
    d="M31.7173 20.0638L26.3924 18.7091C24.9993 18.3546 23.8572 17.2964 23.4909 15.8975C23.4715 15.8235 23.4541 15.7486 23.4388 15.673L21.8118 7.7063C21.7709 7.5035 21.591 7.35742 21.3785 7.35742C21.1659 7.35742 20.986 7.5035 20.9452 7.7063L19.3182 15.673C19.3028 15.7486 19.2855 15.8234 19.266 15.8975C18.8997 17.2963 17.7577 18.3546 16.3645 18.709L11.0398 20.0638C10.8759 20.1049 10.7578 20.286 10.7578 20.5C10.7578 20.714 10.8759 20.8951 11.0398 20.9362L16.3646 22.291C17.7578 22.6455 18.9 23.7039 19.2661 25.1028C19.2855 25.1767 19.3028 25.2515 19.3182 25.327L20.9452 33.2938C20.986 33.4964 21.1659 33.6426 21.3785 33.6426C21.591 33.6426 21.7709 33.4964 21.8118 33.2938L23.4388 25.327C23.4541 25.2515 23.4715 25.1766 23.4909 25.1025C23.8572 23.7037 24.9993 22.6454 26.3924 22.291L31.7172 20.9362C31.881 20.8951 31.9991 20.714 31.9991 20.5C31.9991 20.286 31.881 20.105 31.7173 20.0638ZM21.3785 22.929C20.0461 22.929 18.966 21.8416 18.966 20.5002C18.966 19.1588 20.0461 18.0714 21.3785 18.0714C22.7108 18.0714 23.791 19.1588 23.791 20.5002C23.791 21.8416 22.7109 22.929 21.3785 22.929Z"
    fill="#FFFAF3" />
</svg>